<svg width="39" height="39" viewBox="0 0 39 39" fill="none" xmlns="http://www.w3.org/2000/svg">
<mask id="path-1-inside-1_186_39" fill="white">
<path d="M0 0H24C32.2843 0 39 6.71573 39 15V24C39 32.2843 32.2843 39 24 39H0V0Z"/>
</mask>
<path d="M0 0V-2H-2V0H0ZM0 39H-2V41H0V39ZM0 0V2H24V0V-2H0V0ZM39 15H37V24H39H41V15H39ZM24 39V37H0V39V41H24V39ZM0 39H2V0H0H-2V39H0ZM39 24H37C37 31.1797 31.1797 37 24 37V39V41C33.3888 41 41 33.3888 41 24H39ZM24 0V2C31.1797 2 37 7.8203 37 15H39H41C41 5.61116 33.3888 -2 24 -2V0Z" fill="black" mask="url(#path-1-inside-1_186_39)"/>
<path d="M18.3892 32.1818V10.3636H19.7869V32.1818H18.3892ZM21.7557 17.7784C21.6989 17.1534 21.446 16.6676 20.9972 16.321C20.554 15.9688 19.9205 15.7926 19.0966 15.7926C18.5511 15.7926 18.0966 15.8636 17.733 16.0057C17.3693 16.1477 17.0966 16.3438 16.9148 16.5938C16.733 16.8381 16.6392 17.1193 16.6335 17.4375C16.6222 17.6989 16.6733 17.929 16.7869 18.1278C16.9063 18.3267 17.0767 18.5028 17.2983 18.6562C17.5256 18.804 17.7983 18.9347 18.1165 19.0483C18.4347 19.1619 18.7926 19.2614 19.1903 19.3466L20.6903 19.6875C21.554 19.875 22.3153 20.125 22.9744 20.4375C23.6392 20.75 24.196 21.1222 24.6449 21.554C25.0994 21.9858 25.4432 22.483 25.6761 23.0455C25.9091 23.608 26.0284 24.2386 26.0341 24.9375C26.0284 26.0398 25.75 26.9858 25.1989 27.7756C24.6477 28.5653 23.8551 29.1705 22.821 29.5909C21.7926 30.0114 20.5511 30.2216 19.0966 30.2216C17.6364 30.2216 16.3636 30.0028 15.2784 29.5653C14.1932 29.1278 13.3494 28.4631 12.7472 27.571C12.1449 26.679 11.8352 25.5511 11.8182 24.1875H15.858C15.892 24.75 16.0426 25.2188 16.3097 25.5938C16.5767 25.9688 16.9432 26.2528 17.4091 26.446C17.8807 26.6392 18.4261 26.7358 19.0455 26.7358C19.6136 26.7358 20.0966 26.6591 20.4943 26.5057C20.8977 26.3523 21.2074 26.1392 21.4233 25.8665C21.6392 25.5937 21.75 25.2812 21.7557 24.929C21.75 24.5994 21.6477 24.3182 21.4489 24.0852C21.25 23.8466 20.9432 23.642 20.5284 23.4716C20.1193 23.2955 19.5966 23.1335 18.9602 22.9858L17.1364 22.5597C15.625 22.2131 14.4347 21.6534 13.5653 20.8807C12.696 20.1023 12.2642 19.0511 12.2699 17.7273C12.2642 16.6477 12.554 15.7017 13.1392 14.8892C13.7244 14.0767 14.5341 13.4432 15.5682 12.9886C16.6023 12.5341 17.7813 12.3068 19.1051 12.3068C20.4574 12.3068 21.6307 12.5369 22.625 12.9972C23.625 13.4517 24.4006 14.0909 24.9517 14.9148C25.5028 15.7386 25.7841 16.6932 25.7955 17.7784H21.7557Z" fill="black"/>
<path d="M6 8L9 11L6 14" stroke="black" stroke-width="2"/>
</svg>
